<svg width="120" height="72" viewBox="0 0 120 72" fill="none" xmlns="http://www.w3.org/2000/svg" role="img" aria-label="tagz">
  <g transform="translate(0,4)" stroke-linecap="round" stroke-linejoin="round" fill="none">
    <g stroke="#ffffff" stroke-width="10">
      <path d="M22 6 L6 32 L22 58"/>
      <path d="M98 6 L114 32 L98 58"/>
      <path d="M34 33 L43 21 L52 33"/>
      <path d="M68 33 L77 21 L86 33"/>
      <path d="M52 46 Q60 56 68 46"/>
    </g>
    <g stroke="#8b5cf6" stroke-width="6.5">
      <path d="M22 6 L6 32 L22 58"/>
      <path d="M98 6 L114 32 L98 58"/>
    </g>
    <g stroke="#1f2937" stroke-width="5.5">
      <path d="M34 33 L43 21 L52 33"/>
      <path d="M68 33 L77 21 L86 33"/>
      <path d="M52 46 Q60 56 68 46"/>
    </g>
  </g>
</svg>
